<svg xmlns="http://www.w3.org/2000/svg" width="64.659" height="105.244" viewBox="0 0 64.659 105.244">
  <g id="Group_1718" data-name="Group 1718" transform="translate(-29)">
    <g id="Group_1678" data-name="Group 1678" transform="translate(29)">
      <path id="Path_6838" data-name="Path 6838" d="M687.629,511.515h0c-.188.018-.376.033-.565.042h-.033c-.184.009-.367.02-.55.02h-.243c-.344,0-.684-.014-1.022-.036-.106-.006-.21-.017-.315-.026-.236-.02-.469-.044-.7-.073q-.173-.022-.346-.048c-.231-.035-.46-.075-.687-.119-.1-.02-.2-.038-.3-.06a15.73,15.73,0,0,1-2.041-.59l-.266-.1c-.353-.135-.7-.278-1.042-.437a16.012,16.012,0,0,1-5.32-4.025q-.234-.27-.456-.549c-.168-.213-.328-.431-.485-.651-.049-.069-.1-.141-.145-.211-.107-.155-.211-.311-.311-.47q-.076-.12-.15-.24-.147-.241-.285-.488c-.041-.073-.083-.146-.124-.22a16.06,16.06,0,0,1-.693-1.452c-.032-.078-.061-.156-.092-.234q-.1-.261-.2-.526c-.032-.088-.063-.177-.092-.266-.06-.178-.116-.357-.17-.537-.024-.08-.049-.159-.071-.24a15.8,15.8,0,0,1-.356-1.571c-.015-.083-.026-.167-.039-.25-.029-.186-.055-.372-.078-.56-.011-.094-.021-.188-.031-.282-.02-.188-.035-.377-.047-.565-.005-.085-.013-.169-.017-.254-.014-.271-.022-.543-.022-.815V428.114A16.166,16.166,0,0,0,638,427.687v56.63a35.788,35.788,0,0,0,.3,4.6,34.523,34.523,0,0,0,.622,3.619,29.967,29.967,0,0,0,2.139,5.776,31.328,31.328,0,0,0,3.248,5.216,33,33,0,0,0,4.226,4.536,34.507,34.507,0,0,0,5.075,3.738,35.752,35.752,0,0,0,5.792,2.818,36.734,36.734,0,0,0,6.379,1.779h0a37.988,37.988,0,0,0,14.433-.149,36.57,36.57,0,0,0,7.012-2.194,35.381,35.381,0,0,0,6.241-3.451,30.535,30.535,0,0,0,3.655-3.331A15.84,15.84,0,0,1,687.629,511.515Z" transform="translate(-638 -411.774)" fill="#ffc400"/>
      <path id="Path_6839" data-name="Path 6839" d="M687.628,511.515c-.188.018-.376.033-.565.042h-.033c-.184.009-.367.02-.55.02h-.243a15.888,15.888,0,0,1-12.046-5.513q-.234-.27-.456-.549a15.81,15.81,0,0,1-3.407-9.833V428.114A16.166,16.166,0,0,0,638,427.687v56.63a35.788,35.788,0,0,0,.3,4.6,34.523,34.523,0,0,0,.622,3.619,29.967,29.967,0,0,0,2.139,5.776,31.328,31.328,0,0,0,3.248,5.216,33,33,0,0,0,4.226,4.536,34.507,34.507,0,0,0,5.075,3.738,35.752,35.752,0,0,0,5.792,2.818,36.734,36.734,0,0,0,6.379,1.779h0a37.988,37.988,0,0,0,14.433-.149,36.57,36.57,0,0,0,7.012-2.194,35.381,35.381,0,0,0,6.241-3.451,30.532,30.532,0,0,0,3.655-3.331S691.286,511.2,687.628,511.515Z" transform="translate(-638 -411.774)" fill="#ffc400"/>
      <path id="Path_6" data-name="Path 6" d="M713.908,538a15.9,15.9,0,1,1,0,31.791h0A15.9,15.9,0,0,1,698,553.9V538Z" transform="translate(-665.671 -469.986)" fill="#ff318b"/>
      <path id="Path_6840" data-name="Path 6840" d="M670.329,488.368v-31.79H653.979A15.978,15.978,0,0,0,638,472.557v15.812Z" transform="translate(-638 -432.436)" fill="#25252d"/>
      <path id="Subtraction_4" data-name="Subtraction 4" d="M714.23,488.369H698V456.578h16.23a15.975,15.975,0,0,1,16.1,15.848h0a15.942,15.942,0,0,1-15.942,15.942Z" transform="translate(-665.671 -432.436)" fill="#2edce3"/>
    </g>
  </g>
</svg>
