<svg xmlns="http://www.w3.org/2000/svg" width="847.726" height="216.841" viewBox="0 0 847.726 216.841"><g transform="translate(0 -0.001)"><path d="M108.73,216.81a104.1,104.1,0,0,1-47.95-10.93A106.37,106.37,0,0,1,13.56,160.7c-1.25-2.29-7.1-15.59-7.79-17.6A105.28,105.28,0,0,1,0,109,111.179,111.179,0,0,1,5.8,73.546,105.08,105.08,0,0,1,31.15,32.41C48.64,14.65,69.82,4,94.66.91c26.68-3.32,51.3,2.47,73.78,17.16a105.43,105.43,0,0,1,24.3,22.26c.8,1,3.69,4.73,4.3,5.6a106.516,106.516,0,0,1,19.5,69.9,105.15,105.15,0,0,1-25.37,62.48Q165,209,125.18,215.57a79.851,79.851,0,0,1-16.45,1.24Zm-.19-16.69c50,.64,91.68-41.72,91.68-91.7,0-49.47-40.89-91.9-91.83-91.88-49.42,0-91.79,40.3-91.75,91.93C16.67,159.74,58.72,200.71,108.54,200.12Z" fill="#727272"/><path d="M433.65,168V130c0-6.2,1.11-7.31,7.29-7.32,14.48,0,29-.11,43.44.1,8.74.13,16.82,2.34,22.79,9.39.91,1.07,4.92,8.67,4.92,37a141,141,0,0,0,.29,20.44c.64,7.7-6.2,17.45-14,20.75a34.86,34.86,0,0,1-13.58,2.88c-14.82,0-29.63.07-44.44,0-5.57,0-6.64-1.11-6.66-6.85C433.61,193.6,433.65,180.78,433.65,168Zm29.34-.48c0,3-.06,6,0,9,.34,14.11-2.83,12.35,13.34,12.39,4.35,0,6.35-2.11,6.3-6.45-.07-6.81,0-13.62,0-20.42.1-14.93,1.18-14.8-15.16-14.73-3.59,0-4.62,1.53-4.53,4.81.16,5.06.06,10.21.06,15.36Z" fill="#727272"/><path d="M502.1,60c0,7.83.2,15.65-.05,23.47-.34,10.88-5.46,18-15.81,21.17a78.24,78.24,0,0,1-46.68-.08C429,101.22,423.85,94,423.7,82.9c-.17-13.81-.08-27.63-.05-41.44,0-16.23,6.23-23.76,22.2-26.88a88.41,88.41,0,0,1,35.68.25c14,3,20.43,10.81,20.62,25.16.09,6.66,0,13.32,0,20Zm-29.19.85h-.06c0-4.83.09-9.65,0-14.48-.13-5.85-1.55-7.38-7.27-7.92a33.2,33.2,0,0,0-6,.09c-4.54.4-6.71,2.65-6.54,7.52.29,8.15.64,16.35-.08,24.44-.49,5.53,1.82,8.77,5.87,11.25,3.33,2,7.08,1.27,10.6.09s3.44-4.14,3.47-7c.04-4.71.01-9.37.01-14.03Z" fill="#727272"/><path d="M331.65,60.53c0-7.32-.08-14.64,0-22,.15-11.61,5.27-19.18,16.23-22.45a79,79,0,0,1,45.75,0C404.51,19.3,409.81,26.62,410,37.93q.38,22.46,0,44.93c-.19,11.94-6.06,19.29-17.65,22.35a82.92,82.92,0,0,1-42.91,0c-12.07-3.18-17.71-10.78-17.8-23.23C331.6,74.84,331.64,67.69,331.65,60.53Zm49.08.37h0V47.41c0-7.35-1.63-9-9.14-9.08a34.83,34.83,0,0,0-5.93.58c-3.06.51-4.66,2.35-4.66,5.51v32c0,3.4,1.72,5.31,4.9,5.94a25.29,25.29,0,0,0,9.92,0c3.18-.63,4.92-2.55,4.9-5.94-.03-5.19.01-10.35.01-15.52Z" fill="#727272"/><path d="M340.59,187.14c-3.35-18.23,6.71-36,13.46-54.47,3.67-10,3.82-10,14.32-10,9,0,18,.1,27,0,4.25-.07,7,1.72,8.41,5.62,4.27,11.37,8.59,22.73,12.83,34.11,3.4,9.15,2.46,18.71,2.52,28.17v17c0,3.86-1.93,5.8-5.89,5.76-5.82-.06-11.65,0-17.48,0-4,0-5.79-2.06-5.87-5.84-.08-4-.13-8-.05-12,.06-2.93-1.1-4.27-4.13-4.18-4.15.13-8.32.13-12.48,0-3-.09-4.24,1.16-4.18,4.13.08,3.82,0,7.66-.06,11.48-.1,4.45-2.19,6.66-6.89,6.46-5.32-.23-10.65-.09-16-.06-3.75,0-5.49-1.8-5.47-5.5C340.62,201.77,340.59,195.78,340.59,187.14Zm38.4-19.4a41.439,41.439,0,0,1,4.46,0c4,.45,5-1,3.6-4.8s-2.4-7.56-3.56-11.36c-.62-2-1.57-3.6-4.06-3.61-2.69,0-3.76,1.55-4.38,3.86s-1.44,4.75-2.2,7.11c-3.45,10.64-2.59,8.63,6.15,8.8Z" fill="#727272"/><path d="M804,213.28H784c-6.1-.05-7.14-1.13-7.23-7.39V197.4c.06-7.34,1.32-8.6,8.86-8.61,8.16,0,16.32.06,24.48.08,1.33,0,2.66,0,4-.08,1.82-.08,3.28-.72,3.53-2.79a3.18,3.18,0,0,0-2.92-3.9c-5.74-.93-11.51-1.71-17.24-2.67-15.79-2.65-20.7-8.51-20.71-24.57v-8.49c.09-14,7.9-22.86,21.81-23.46,13-.56,26-.17,38.95-.19,3.73,0,5.47,2,5.53,5.61.06,4.32,0,8.65,0,13,0,4.17-2.19,6-6.27,6h-25.5c-2.27,0-4.59.2-5,3-.43,3.3,2.31,3.72,4.57,4.08,5.41.87,10.88,1.42,16.3,2.27,14.67,2.3,19.88,8.05,20.49,22.8a87.475,87.475,0,0,1-.42,12.95c-1.44,13.15-9.1,20.27-22.36,20.75-7,.26-14,.05-21,.05Z" fill="#727272"/><path d="M252.57,167.74v-18c.08-17.14,8.29-26.15,25.32-26.89,12-.51,24-.12,36-.2,4.24,0,6.06,2.13,6.09,6.14,0,3.83-.11,7.66.06,11.49.23,5.08-2.29,7.42-7.12,7.5-7.66.11-15.32.06-23,.15-6.85.08-7.88,1.11-7.91,7.83,0,8.82.1,17.65,0,26.47-.08,4.65,1.82,6.69,6.54,6.57,11.11-.3,10.12,1.7,10.14-10.11,0-13.84,0-13.83,13.95-13.85,15.91,0,15.65-1.23,15.53,15.47-.06,8.49,0,17,0,25.47-.06,6.2-1.28,7.45-7.24,7.46H280.47a37.29,37.29,0,0,1-11.78-1.89c-10.19-3.37-15.6-10.43-15.92-21.15-.22-7.49,0-15,0-22.48Z" fill="#727272"/><path d="M525.57,167.69v-18c.09-17.1,8.32-26.12,25.37-26.84,12-.51,24-.12,36-.2,4.26,0,6,2.2,6.05,6.19,0,3.83-.12,7.66,0,11.49.23,5.11-2.38,7.38-7.17,7.45-7.66.12-15.32.06-23,.15-6.8.08-7.83,1.12-7.86,7.88,0,8.82.1,17.65,0,26.47-.08,4.69,1.95,6.71,6.59,6.55,11.22-.4,10.1,1.45,10.07-9.71-.06-15.36-.42-14.31,14.53-14.28s15,0,15,15c0,8.66.06,17.32,0,26-.06,6.17-1.28,7.39-7.3,7.41H553.39a37,37,0,0,1-11.77-1.91c-10.17-3.38-15.44-10.46-15.92-21.18v-22.5Z" fill="#727272"/><path d="M615.57,167.74c0-12.83.12-25.66-.06-38.49-.06-4.68,1.72-6.65,6.44-6.62q27.24.16,54.48,0c4.6,0,6.86,1.81,6.75,6.49-.08,3.83-.08,7.67,0,11.5.11,4.69-2.28,6.61-6.77,6.59-9-.05-18,.06-27,0-3.23,0-5.4.34-5.33,4.5s2.35,4.11,5.24,4.08c5.66-.06,11.33.06,17,0,4.51-.07,6.9,1.84,6.79,6.53-.08,3.5-.06,7,0,10.5.07,4.37-2.09,6.43-6.4,6.42-5.5,0-11,.06-16.5,0-3.33,0-6.16-.29-6.16,4.72,0,4.74,2.37,5.05,6,5,8.5-.14,17-.14,25.49-.12,6.25,0,7.6,1.38,7.69,7.64.05,3.5,0,7,0,10.5.07,4.29-1.71,6.42-6.26,6.4q-27.74-.15-55.48,0c-4.27,0-5.94-1.88-5.91-6.07C615.64,194.06,615.58,180.9,615.57,167.74Z" fill="#727272"/><path d="M516.93,60.1c0-12.16-.06-24.31,0-36.47,0-7.52,1.31-8.71,8.72-8.76,4.5,0,9-.06,13.49,0,5.77.09,7.32,1.41,7.52,7.49.29,8.65.14,17.32.15,26,0,9,.16,18-.06,27-.11,4.39,1.61,5.78,5.88,5.77,10,0,10,.13,10-10-.06-15.29-.85-14.52,14.29-14.47,14.06,0,14.06,0,14.06,13.9,0,9.15.06,18.31,0,27.47-.07,6.46-1.59,8-8,8q-29,.09-58,0c-6.39,0-8-1.54-8-8C516.86,85.41,516.94,72.75,516.93,60.1Z" fill="#727272"/><path d="M253.66,60.64c0-6.66-.13-13.33,0-20,.35-14.58,7.73-22.94,22.11-24.93,12.93-1.79,25.95-.59,38.92-.76,3.63-.05,5.46,2,5.44,5.69,0,4.33-.09,8.66,0,13,.14,4.8-2.36,6.5-6.81,6.46q-10.74-.1-21.49,0c-7.23.09-8.75,1.66-8.78,8.9,0,8.17-.06,16.33,0,24.49.05,5.89,1.28,5.38,6.9,6.29,8.63,1.4,17.23.29,25.76,1.42a4.48,4.48,0,0,1,4.3,4.68q.11,7.5,0,15c-.05,3.57-2.3,5.13-5.52,5.1-12.65-.12-25.34,1.05-37.92-.72-16-2.24-22.88-10.33-23-26.64-.05-6,0-12,0-18Z" fill="#727272"/><path d="M714.76,179.89c0-9-.1-18,0-27,.06-3.66-1.37-5.09-5-5-4.15.1-8.32-.09-12.47-.34-3.55-.2-5.46-2.23-5.5-5.82,0-4.5-.08-9,0-13.49.08-3.56,1.9-5.55,5.62-5.55h65c3.78,0,5.39,2.19,5.47,5.7q.14,5.75.05,11.49c-.1,6.12-1.43,7.54-7.69,7.93a87.616,87.616,0,0,1-10,.07c-3.88-.22-5.27,1.33-5.24,5.24.15,17,.08,34,.06,51,0,8.39-.79,9.15-9.1,9.16h-14c-6.12-.06-7.19-1.13-7.24-7.39C714.72,197.22,714.77,188.55,714.76,179.89Z" fill="#727272"/><path d="M76,95V91.45c0-11.84.48-23.71-.14-35.52C75.28,45.7,84,40.46,92.61,42.4,99.1,43.87,102,47.23,102,53.87V65.39c0,5.1-.48,4.93,4.74,4.73,5.7-.22,10.35,1.23,13,6.74.43.9,1.22,1,2.07,1,2,0,3.92.1,5.88,0a8.67,8.67,0,0,1,8.43,4.39,3.08,3.08,0,0,0,3,1.61h4.41c6.37,0,10.74,3.75,10.88,10.11.27,12.08.14,24.18.1,36.26,0,2.07-1.21,3.88-1.93,5.78-3.56,9.39-7.22,18.74-10.72,28.15a3.6,3.6,0,0,1-4,2.71q-26.46-.11-52.93,0c-2.28,0-3.46-.65-3.1-3,1.31-8.77-1.86-16-6.74-23.17-7.32-10.72-13.88-22-20.78-32.95a18.08,18.08,0,0,1-2.42-10.58c.16-4,2.68-6.68,6.63-7.83,5.76-1.68,10.59.16,15,3.79C74.14,93.56,74.77,94.05,76,95Zm7.8-10.14v28.68c0,5.68,0,5.64-5.69,5.33-1.46-.08-2.09-.65-2.1-2,0-2.61,0-5.23-.08-7.84a4.11,4.11,0,0,0-.45-2.61A37.52,37.52,0,0,0,65.97,97c-2.39-1.53-4.16.35-6.13.62-1,.14,0,2.46.16,3.79a7,7,0,0,0,1.22,2.92c8.23,13.16,16.35,26.39,24.73,39.45,2.55,4,4.52,7.88,3.75,12.73-.33,2.11.62,2.83,2.77,2.82q20.35-.12,40.69,0a3.09,3.09,0,0,0,3.4-2.36c3.16-8.58,6.42-17.13,9.69-25.67a11.09,11.09,0,0,0,.73-4.06V96.85a16.81,16.81,0,0,0-.32-3.4,2.38,2.38,0,0,0-2.17-2c-5.6-.83-6.23-.32-6.23,5.21v.24c0,5.51,0,5.46-5.55,5.25-1.65-.06-2.37-.64-2.34-2.32.06-3.27,0-6.54,0-9.81-.05-4-.57-4.57-4.49-4.56-5.11,0-4.76-.46-4.77,4.76s0,5.13-5.24,5.11c-1.93,0-2.61-.76-2.58-2.62.06-3.43.07-6.86-.06-10.29s-1.3-4.42-4.6-4.42c-1.15,0-2.3.1-3.43,0-2.42-.27-3.4.6-3.27,3.14.18,3.84,0,7.68,0,11.52,0,.8.22,1.93-.62,2.23a9.83,9.83,0,0,1-6,.09c-1.53-.45-.87-2.11-.88-3.24q-.06-18.63,0-37.26c0-1.3.22-2.79-1-3.62-2.35-1.59-5-1.42-7.53-.57-2.18.72-2.13,2.61-2.13,4.46q0,15.03-.02,30.1Z" fill="#727272"/></g></svg>