<svg xmlns="http://www.w3.org/2000/svg" width="1187.651" height="233.834" viewBox="0 0 1187.651 233.834"><g transform="translate(0 -0.001)"><path d="M271.47,208.65c-3-1.2-5.87-2.39-8.78-3.48-2.15-.82-18.43-4.83-23.15-5.27a88.33,88.33,0,0,0-59.64,15.5c-17.11,11.68-36.35,17-56.84,18.22-31.34,1.85-58.72-8.3-82.5-28.23a103.932,103.932,0,0,1-8.36-8.06c-15.19-16.1-25.36-35-29.66-56.81C-4.38,105.35,2.77,73.16,24.85,45,47.16,16.48,76.86,1.69,113.16.12c34.59-1.49,63.79,11,87.64,35.18,21.66,22,32.63,49.07,33,80.19.12,9.65-.57,19.31.7,28.94,3.37,25.55,15.31,46.13,35.58,61.95C270.7,206.85,271.6,207.16,271.47,208.65ZM167.28,65C154,47.31,123.21,32.58,91.63,43.17,59.71,53.88,42.12,80,42.13,111.52c0,29.2,18.74,52.94,33.41,58.69-19.44-33.11-11.66-65.47,3.7-83.76C102.78,58.43,132.29,51.77,167.28,65ZM118.35,186.27c-12.17-25.81-10.83-49.29,8.71-69.33C145.51,98,168,95.07,192.62,105,183.39,90.34,159.23,81.31,140,85a56.7,56.7,0,0,0-45.89,46.3C90.61,152.36,100.51,175.63,118.35,186.27Zm36.27-1.7c-7.05-13.55-7.7-26.94,1.31-39.56s22.12-16.49,37.93-13.74c-9.55-8.52-24.37-10.34-35.73-5C146.05,132,138,144.91,139,158.12,139.81,169.29,144.36,178.65,154.62,184.57Zm45.81-14.46a10.159,10.159,0,0,0-20.31-.6c-.24,5.28,4.52,10.33,9.89,10.49a10.37,10.37,0,0,0,10.42-9.89Z" fill="#727272"/><path d="M927.18,175c-6.92-9.64-6.62-14,1.75-22.42,1.29-1.31,2-2,0-3.3-11.33-7-12.2-20.93-9.39-30.67S931.3,101.84,943,101.48c13.44-.42,26.9,1.34,40.38.94,2.53-.08,3.48,1.47,3.47,3.86s-.1,4.33-2.93,5c-3.32.78-8.19-.88-9.62,2.28-1,2.23,1.85,6,2.55,9.25,1.5,6.82-.26,13-3.33,19.22-2.23,4.49-4,7.68-9.94,8.73-6.35,1.11-12.52,3.2-19.09,2.81-3-.18-5.58.4-7.72,2.64s-3.63,4.93-2.42,8.12,3.92,3.8,6.93,3.92c8.14.33,16.3-.37,24.44.85,11.23,1.67,18.06,7.3,19.81,16.77,1.86,10.14-2.75,20.63-12.18,25.21a60.39,60.39,0,0,1-48,2.69c-8.4-3-14-8.84-13.46-18.69.44-8.88,4.64-15.07,12.85-18.53C925.63,176.2,926.74,176.11,927.18,175Zm23.28,5.73h0c-4.81,0-9.66-.41-14.42.1-7,.75-11.08,5.54-11.39,12.26-.34,7.33,2.71,11.17,10.2,13a47.46,47.46,0,0,0,16.83.81c6.79-.77,13.53-1.91,18.46-7.48a12.39,12.39,0,0,0,2.61-12.53c-1.37-4.58-5.27-5.8-9.35-6.11-4.29-.29-8.62-.04-12.94-.04Zm14.07-53.2c-.07-11.34-5.67-16.93-16.88-16.84s-16.91,6.22-16.81,17.67c.1,10.49,6.07,15.94,17.37,15.84,11.15-.09,16.38-5.44,16.32-16.66Z" fill="#727272"/><path d="M727.83,152.84c0,7-.05,14,0,21,0,2.68-.82,4.29-3.62,5.07-15.1,4.19-30.4,6.2-45.92,3.4-16.72-3-28.2-12.78-34.54-28.56a114.975,114.975,0,0,1-3.19-12.48c-1.83-12.41-1.16-24.62,3.74-36.29,7.75-18.45,22.45-27.52,41.73-29.61a78.1,78.1,0,0,1,35.42,4c2.75,1,5.3,2.05,3.09,5.54-1.81,2.87-1,8.83-7.64,6.26-10.08-3.9-20.5-5.61-31.34-3.8-18,3-30.1,15.78-31.58,34.15-.81,10.16-.55,20.28,3.7,29.91C662.83,163,672,169.3,684.14,171a79.37,79.37,0,0,0,25.86-.8c3.18-.62,4.6-2,4.55-5.33-.11-7.49-.12-15,0-22.48.07-3.4-1.17-4.85-4.66-4.71-4.66.18-9.33-.14-14,.07-4,.17-4.72-2-4.56-5.32.14-3-.56-6.25,4.2-6.2,9.33.11,18.66.08,28,0,3.29,0,4.36,1.57,4.32,4.63C727.77,138.19,727.83,145.51,727.83,152.84Z" fill="#727272"/><path d="M885,111.1c-.92-11.94-.17-23.86-.55-35.77-.14-4.57,1.49-6.24,6.07-6.07,6.36.25,7,.49,7.05,6.12q.06,50.43,0,100.86c0,2.71.13,5.57-3.93,5.48-3.43-.08-7.35.87-7.49-4.63A23.254,23.254,0,0,0,885,172.5c-11.63,12.16-25.12,13.91-39.47,7.41-12.28-5.56-16.21-17.1-17.66-29.42-1.37-11.73-.48-23.39,5.5-33.93,9.72-17.13,33.54-20.78,48.28-7.66C882.58,109.73,883.1,111.22,885,111.1Zm-.56,32.09A62.35,62.35,0,0,0,883.3,129c-2.11-10.87-7.63-15.6-19.75-16.84-9.29-1-16.72,3.5-20,13.09-4.14,12.16-4.46,24.58.87,36.54,3.75,8.42,11.09,11.54,22.21,10.36,8.79-.94,14.56-6.11,16.61-14.86a54.853,54.853,0,0,0,1.2-14.1Z" fill="#727272"/><path d="M1037.8,144.74c-7.5,0-15,.08-22.5,0-3.2,0-4.36.78-3.92,4.34,2,16.55,13,25.1,29.55,22.83,5.46-.75,10.92-1.45,16-3.56,3.62-1.48,4.57-.08,4.85,3.49.38,4.8-1.36,7.32-6,8.67-10.61,3.09-21.19,4.16-32,1.31-11.77-3.1-19.56-10.66-23.31-22a53,53,0,0,1,1.48-38.55c6.35-14.82,20.65-22.43,36.59-19.68,15,2.6,25.5,14.68,26.17,31,.61,14.86,1.28,11.88-11.43,12.17C1048.13,144.84,1043,144.73,1037.8,144.74Zm-6.67-10.54h16.44c2,0,3.56-.26,3.7-2.87.39-7.11-5.25-15.95-11.76-18.18a20.75,20.75,0,0,0-27.45,16.27c-.61,3.46.51,5,4.12,4.83,4.98-.16,9.97-.05,14.95-.05Z" fill="#727272"/><path d="M346.72,74.93a72.35,72.35,0,0,1,24,4.22c3.28,1.23,4,2.7,2.35,5.93-3.44,7-3.29,7-10.75,4.46-11.81-4.08-23.59-4.5-34.84,1.52-12.58,6.73-17.15,18.55-18.41,31.86-1.13,12,.27,23.68,6.82,34.15,5.72,9.16,14.39,13.54,25,14.2a81,81,0,0,0,23.78-2.06c2-.47,4.62-2.3,5.93,1.16,1.48,3.89,0,8.75-3.16,9.73-9.65,2.94-19.57,4.32-29.59,3-25.84-3.35-39.79-18.2-42.48-44.28-1.68-16.23.3-31.6,9.87-45.26C313.92,81.15,329.61,74.24,346.72,74.93Z" fill="#727272"/><path d="M796.08,171c-9,10.94-19.84,14-32.42,11.84-13.84-2.37-21.19-13.53-19-27.38,1.54-9.61,7.77-14.25,15.92-17.23,9.35-3.41,19.17-4.19,29-3.91,4.6.14,6.12-1.43,5.94-6-.48-11.91-6.4-17.17-18.34-16.06a50.82,50.82,0,0,0-16.81,4.43c-2.67,1.24-4.22.21-4.86-2.29s-3.94-5.3.16-7.29c12.09-5.84,24.69-8,37.78-3.79,9.48,3,13.94,10.38,14.18,19.71.48,18.14.18,36.3.19,54.45,0,2.1-.15,4.21-3,4.19-2.68,0-5.93,1.11-7-2.9C797.35,176.48,796.85,174.22,796.08,171Zm-23.23,1.43c14.87-.22,23.57-9.84,22.59-24.83-.18-2.62-1-4-3.8-4-7.66.08-15.32.34-22.72,2.42-8.35,2.36-12.1,8.22-11,16.48.96,6.76,5.89,10.04,14.93,9.91Z" fill="#727272"/><path d="M547.8,142.84a44.38,44.38,0,0,1-7.4,26.92c-12.17,18.24-49.31,20.14-61.07-6.54-2-4.53-4-18.39-2.19-31.92.07-.57.18-1.14.3-1.7,4.49-19.37,17.16-29.49,37.87-28.28,17.56,1,31.23,15.32,32.46,34C547.94,137.84,547.8,140.34,547.8,142.84Zm-15.08-16.15c-3.37-9.5-9.9-14.11-20.5-14.26-11.19-.17-18,3.93-21.25,13.71a50.13,50.13,0,0,0,.28,32.83c3.06,8.78,10.39,13.3,20.18,13.36,10.54.07,17.05-4.09,20.72-13.22,3.53-5.11,3.76-27.05.57-32.42Z" fill="#727272"/><path d="M423.39,101.19c17.13,0,30.41,10.3,34.48,26.93,2.84,11.64,2.49,23.14-2.08,34.28-6.07,14.82-18.1,21-33.24,20.94-14.45-.06-25.78-6.57-31.68-20.28-6.33-14.69-6.15-29.67.92-44C398.12,106.22,409.49,101.18,423.39,101.19Zm-23.62,40.68a42.889,42.889,0,0,0,3.06,17.6c3.69,8.8,10.46,12.95,20,12.9,10.24-.06,17.14-4,20.53-12.81a46.57,46.57,0,0,0,.16-34.17c-5.37-14-25.07-18-35.9-7.5-6.83,6.61-7.36,15.29-7.85,23.98Z" fill="#727272"/><path d="M1159.88,101.19a58.72,58.72,0,0,1,21.24,3.39c2.52.89,5.57,1.54,3.5,5.36-1.55,2.87-1.38,7.78-7.22,5.53-7.69-3-15.68-4.4-24-2.83-4.42.84-8.59,2.11-9.57,7.31-.91,4.78,1.16,8.39,6.7,11s11.38,4.71,17,7.16c3.2,1.38,6.38,2.86,9.43,4.55,7.38,4.08,11.13,10.39,10.65,18.88s-4.91,14.93-12.74,18.22c-13.22,5.56-26.66,4.91-40,.06-3.13-1.15-5.18-9.14-3.2-11.69,1.34-1.72,2.78-.32,4,.19a55,55,0,0,0,25.42,4,23,23,0,0,0,7.28-1.6c7.8-3.28,9.08-11.78,2.59-17.2-3.24-2.7-7.14-4.24-11-5.88-5.81-2.49-11.79-4.67-17.38-7.59-7.86-4.11-12.31-10.55-11.36-19.89.86-8.46,6-13.37,13.5-16.37a35.48,35.48,0,0,1,15.16-2.6Z" fill="#727272"/><path d="M1085.34,139.49c0-7.16-.2-14.33.07-21.49.17-4.22-1.42-5.64-5.49-5.4-2.1.13-5,1.09-5.92-2.12-.67-2.32-.1-4.67,2.47-5.24,8.51-1.89,10.7-8.48,12.3-15.69a11.1,11.1,0,0,1,1.72-4.11c1.26-1.71,3.3-1.25,5.1-1,2.25.3,2.26,2.13,2.29,3.81.06,3.33.15,6.67,0,10-.11,3,1.29,4.17,4.21,4.12,4.83-.09,9.66.07,14.49,0,3.74-.06,4.32,2.12,4.3,5.19s-.49,5.27-4.29,5.17c-4.66-.12-9.33.12-14,0-3.37-.12-4.79,1-4.75,4.57.14,13.83-.11,27.67.14,41.49.19,10.11,4.75,14,14.88,13.64,1.17,0,2.33-.13,3.5-.2,2.18-.13,5-1.43,5.12,2.49.11,3.15.64,6.54-3.7,7.6C1102.57,186,1085,182,1085.3,159c.09-6.5,0-13,0-19.5Z" fill="#727272"/><path d="M568.38,125.49c0-16.81.16-33.62-.11-50.42-.07-5,2.14-5.82,6.32-5.79s6.42.64,6.4,5.7q-.3,50.68,0,101.36c0,5.28-2.68,5.4-6.56,5.44s-6.2-.54-6.13-5.36C568.52,159.45,568.38,142.47,568.38,125.49Z" fill="#727272"/></g></svg>