<svg xmlns="http://www.w3.org/2000/svg" width="1208.673" height="162.942" viewBox="0 0 1208.673 162.942"><g transform="translate(-0.011 0.032)"><path d="M364.82,33q-10.94,49-21.86,97.93c-1.6,7.15-3.36,14.26-4.78,21.44-.61,3.08-2.23,4.21-5.14,4.2-7.83,0-15.66-.08-23.49,0-3.75,0-4.63-2.2-5.31-5.27q-12.9-58.26-25.95-116.48a12.35,12.35,0,0,0-1.4-3.83c.33,4.78.93,9.56.95,14.34.1,35.16,0,70.32.19,105.48,0,4.39-1.48,6-5.76,5.79-5.32-.22-10.67-.2-16,0-4.28.15-5.91-1.54-5.86-5.87.17-14,.06-28,.06-42V9.25c0-7,0-7,6.85-7,10.5,0,21,.24,31.49-.11,4.88-.16,7.07,1.31,8.06,6.25,3.43,17.14,7.3,34.18,11,51.26.63,2.86,3.28,15.11,3.85,17.72,2.8,12.63,9.1,41.1,10.28,42.63q4.64-21.37,9.25-42.73c5-23.1,10.07-46.18,14.89-69.32.85-4.08,2.25-6,6.8-5.83,11.49.31,23,.24,34.48,0,4.12-.07,5.51,1.36,5.5,5.47q-.13,71.73,0,143.47c0,4.17-1.54,5.65-5.56,5.52-5.5-.19-11-.25-16.5,0-4.71.22-6.49-1.52-6.43-6.34.2-16.8,0-33.61.09-50.41C364.66,77.58,363.83,55.25,364.82,33Z" fill="#727272"/><path d="M73.33,162.87H20.86c-6,0-6.57-.56-6.58-6.6V89.81c0-7,0-6.9-6.87-7.1C4.89,82.64,1.28,84.1.17,81.24c-.92-2.37,2.37-4,4-5.83q31.72-34.3,63.55-68.5c5.35-5.76,5.43-5.76,10.69-.11q32.88,35.27,65.7,70.58c1.08,1.16,3,2.27,2.14,4.12s-2.93,1.22-4.52,1.23c-10.85,0-9.75-.7-9.76,10.18v63c0,6.67-.34,7-7.15,7Q99.08,162.9,73.33,162.87ZM71.07,76.8c-11-.06-22,4.37-31.58,12.7-2,1.74-3.84,3.91-1.78,6.4s4.38,1.11,6.52-.62c18.36-14.9,38.21-14.9,56.91,0,2.19,1.74,4.64,3.5,6.93.65,2.15-2.68-.22-4.62-2.06-6.3C96.61,81,85.52,76.78,71.07,76.8Zm25.21,27.82c-.16-2.24-1.54-3.46-2.91-4.69C81.52,89.29,61.32,89.16,49.22,99.7c-2.14,1.86-4.8,4-2.25,7.06s4.71.48,6.78-1.14c10.76-8.46,23.64-8.48,34.51-.08,1,.81,2,1.92,3.23,2.29C94.37,108.73,95.83,107.18,96.28,104.62Zm-23.49,2.24a18.17,18.17,0,0,0-12.3,4.61c-1.55,1.36-2.89,3-1.52,5.19,1.47,2.32,3.74,2.23,5.65.85,5.59-4.05,10.93-4,16.46.16a3.63,3.63,0,0,0,5.37-.59c1.65-2.22.41-4.07-1.34-5.61A18.4,18.4,0,0,0,72.79,106.86Z" fill="#727272"/><path d="M562.87,126.59c0,8.17-.17,16.34.07,24.5.12,4.2-1.55,5.64-5.57,5.53-6.16-.18-12.34-.22-18.5,0-4.4.16-5.84-1.64-5.65-5.93.28-6.32.09-12.66.06-19V115.05c0-12.67-.12-25.34.1-38,.06-3.41.12-12.72,0-16.15-.63-26.24-.1-39.37-.13-40-.37-7.28-1-14.33,3.25-17.32,1.6-1.13,3.25-1.23,5.46-1.33,16.5-.75,23.91-.21,23.91-.21a123.911,123.911,0,0,1,17.52,1.05c18.86,2.71,29.31,12.44,33,31.07,2.79,14.22,2.06,28.2-5.12,41.27a28.23,28.23,0,0,1-9.12,10.45c-3.16,2-3.49,4.11-2,7.48,8.43,18.86,16.64,37.82,24.92,56.74,2.54,5.82,2.18,6.39-4.31,6.44s-13-.14-19.49.05c-3.76.12-5.66-1.44-7-4.9-6.66-16.89-13.53-33.69-20.37-50.51-.72-1.79-1.12-3.8-3.59-4.37-5.37-1.23-7.4.24-7.42,5.76C562.86,110.6,562.88,118.6,562.87,126.59Zm0-77.06V67c0,2.08,0,4.24,3,4.17,11.73-.28,20.18-2,21.56-17.09a60.392,60.392,0,0,0,.14-7.49c-.52-13.82-6.87-19.49-20.61-18.77-3,.15-4.12,1.28-4.07,4.22.11,5.83,0,11.66-.01,17.49Z" fill="#727272"/><path d="M505.74,156.58c-17.46-.3-13.53,2.39-17.48-13.77-1.65-6.79-3.31-13.59-4.63-20.45-.67-3.48-2.32-4.7-5.77-4.64-9.49.14-19,.28-28.49-.06-4.56-.16-6.53,1.45-7.39,5.85-1.79,9.14-4.22,18.16-6,27.32-.86,4.55-3,6-7.48,5.82-5.65-.3-11.33,0-17-.08-6.13,0-6.45-.43-5-6.23Q419.15,99.18,431.8,48c3.39-13.74,6.9-27.45,10.08-41.24.91-3.94,2.59-5.58,6.74-5.48q14.24.36,28.49,0c4-.09,5.95,1.22,6.94,5.26q17.68,72.29,35.7,144.49c1.08,4.33-.22,5.83-4.51,5.54C512.08,156.41,508.91,156.57,505.74,156.58ZM463,26.56c-3.56,21.18-8.34,40.86-12.75,60.62-.73,3.31.7,4.15,3.65,4.11,6-.08,12-.16,17.95,0,4,.12,4.82-1.41,3.93-5.15C471.22,66.79,466.63,47.41,463,26.56Z" fill="#727272"/><path d="M198.18,0c11.29-.09,21,2.93,30.26,8,3.06,1.67,3.49,3.35,2.11,6.35-2.15,4.69-4.15,9.46-5.89,14.32-1.37,3.8-3,5-6.88,2.67a36.12,36.12,0,0,0-14.06-4.85c-11.61-1.58-18.88,5.66-17.64,17.42,1.06,10,7.43,16,14.95,21.33A175.483,175.483,0,0,1,217.7,78c19.46,17.55,17.77,46.38,9.27,61.73-5.84,10.54-15.4,16-27,17.79a72.92,72.92,0,0,1-39.64-4.85c-3.6-1.51-5.07-3.71-4.9-7.63.26-6,0-12,.08-18,.05-5.47.51-5.74,5.22-3.13,9.13,5.06,18.51,9.16,29.33,8.44,3.69-.25,8.26-1.18,9-4.22,1-4.2,4.44-7.29,4.38-11.77a21.4,21.4,0,0,0-4.53-13.47c-3.86-4.88-8.7-8.69-13.67-12.36C177.6,84.87,169.93,79.3,164.72,71c-10.15-16.09-10.11-40.91,0-55C173.21,4.3,184.79-.48,198.18,0Z" fill="#727272"/><path d="M688.68,92.58v57.47c0,6-.47,6.47-6.59,6.52-5.5,0-11-.26-16.49.08-5.15.33-6.44-1.75-6.42-6.68.18-38,.1-76,.1-113.94a33.858,33.858,0,0,1,0-3.49c.35-3.44-1.07-4.78-4.58-4.68-6.65.19-13.32-.07-20,.1-3.54.1-5.29-1-5.2-4.79.14-5.49.08-11,0-16.49,0-3.08,1.19-4.49,4.46-4.48q39.74.12,79.46,0c3.25,0,4.46,1.35,4.4,4.48-.1,5.49-.16,11,0,16.49.13,3.83-1.65,4.87-5.15,4.78-6.33-.17-12.67.15-19-.11-4-.16-5.17,1.46-5.14,5.26C688.75,52.93,688.69,72.76,688.68,92.58Z" fill="#727272"/><path d="M934,74.66c-.22,24.43-1.53,41.85-8.23,58.34-4.23,10.43-10.36,19.51-21,24.44-17.46,8.11-36.78,2.13-47.05-14.33-8-12.8-10.81-27.15-12.3-41.81a194.448,194.448,0,0,1,1.9-54.23c1.75-9.73,4.62-19.1,10-27.52a30,30,0,0,1,6.92-8,54,54,0,0,1,15.5-7.87c10.4-3.25,20.79-1.6,30,4.84a47.7,47.7,0,0,1,12.58,16.45C929.55,40.69,934.51,64,934,74.66Zm-11.75,7.11c.53-7.2-.55-14.33-1.16-21.44-1-12-3.37-23.69-9.67-34.3-10.28-17.29-34.37-16-43.76-.65A59,59,0,0,0,861,40.88c-5.46,20.26-4.82,40.89-3.54,61.53a116.739,116.739,0,0,0,2.27,15.29c.53,2.68,6.08,17.19,9.21,21.68a25,25,0,0,0,8.76,7.81c.76.4,9.62,4.91,19.54,1.69,12.41-4,17.33-17.2,19.51-23a65.344,65.344,0,0,0,2.61-10.33c.79-4.14,1.64-15.92,2.93-33.78Z" fill="#727272"/><path d="M742.32,81.8v-71c0-5.82,4.19-8.47,9.48-6.11,2.42,1.07,2,3.26,2,5.17V58.35c0,3.16.18,6.33,0,9.49s.93,4.58,4.27,4.55c14.66-.1,29.33,0,44-.08,1.24,0,2.87.74,3.11-1.93,1.53-16.76.84-33.56.91-50.34,0-3.87-1-7.56-.2-11.66,1-5.05,4.15-3.75,7.06-4,3.65-.29,4.53,2,4.53,5,0,11.49.05,23,.05,34.49q0,54.24-.05,108.47c0,6.33-.91,7-7.48,6.47-2.34-.18-3.68-.87-3.82-3.49-.56-10.76-.81-21.64-.72-32.3.1-11-.07-22.23.76-33.31.36-4.8-1.35-6.39-6.18-6.29-13.33.27-26.67.31-40,0-5.23-.13-6.43,1.81-6.38,6.69.23,20.83.11,41.66.08,62.48,0,5.63-4.52,8.35-9.66,5.89-2.61-1.25-1.79-3.72-1.8-5.74q-.09-33,0-66Z" fill="#727272"/><path d="M1035.89,63.52c0,16.66.12,33.32,0,50-.1,9.9-1.69,19.62-6,28.62-5.89,12.3-16,18.41-29.52,18.71-14.84.34-26.59-5.26-33.76-18.82-5.78-10.95-6.75-23-6.84-35-.23-32-.09-64-.07-95.94,0-6.15,3.73-8.65,9.36-6.43,1.9.76,2,15.29,2,17.63V59.74c0,2.33.54,28.89.15,38.58s.71,19.14,1.85,28.68c1.2,10,10.13,20.48,19.65,22.24,12.65,2.34,22.2-2.39,27.4-13.74a49,49,0,0,0,4.2-20.39c.14-32.81.11-65.63.14-98.44,0-2-.05-4,0-6,.16-5.69,4.62-8.36,9.71-5.88,2.41,1.17,1.76,3.38,1.77,5.26V63.52Z" fill="#727272"/><path d="M1151.59,81.67c0-23.66.09-47.33-.07-71,0-4.7,1.41-6.47,6.29-6.38,15,.25,30,.21,45,0,4.42-.06,5.77,1.69,5.87,5.88.1,4.47-1.71,5.76-5.94,5.68-11.33-.22-22.67,0-34-.19-4.17-.09-5.94.94-5.87,5.54.26,15.33.2,30.66,0,46,0,3.9,1.19,5.3,5.14,5.23,10.67-.2,21.34.06,32-.12,4.17-.07,6,1.12,6,5.65s-1.88,5.71-6,5.65c-10.5-.16-21,.05-31.5-.1-3.88-.06-5.71.89-5.66,5.29q.32,26.75,0,53.5c0,4.4,1.77,5.35,5.66,5.3,11.33-.15,22.66.09,34-.12,4.57-.08,6.14,1.63,6.14,6.15,0,4.77-2.42,5.32-6.31,5.28-14.83-.14-29.67-.22-44.5,0-4.82.08-6.37-1.54-6.33-6.3C1151.69,129,1151.59,105.34,1151.59,81.67Z" fill="#727272"/><path d="M1084,160.82c-5.75-.26-13.68-1-21.18-4.14-3-1.25-5-9.25-3-11.72,1.49-1.78,3.06-.29,4.5.27a66.351,66.351,0,0,0,27.32,4.47c13.43-.63,22.7-13.71,23.76-26.67,1.32-16-4.61-27.75-19.06-35.23-6.5-3.36-12.74-7.24-19-11.11-23.68-14.76-22.4-59.16,4.09-70.88,13.89-6.15,27.4-3.73,40.59,2,5.09,2.2.56,5.65,0,8.46s-2.38,3-4.9,1.86a45.4,45.4,0,0,0-19.32-4.32c-14.9,0-24.94,9.79-25.9,24.69s4.79,25.72,17.81,33c6.25,3.48,12.63,6.72,18.59,10.74,26.76,18,21.47,55.93,4.76,69.82C1105.81,158,1097.91,161,1084,160.82Z" fill="#727272"/></g></svg>