<svg xmlns="http://www.w3.org/2000/svg" width="872.053" height="292.433" viewBox="0 0 872.053 292.433"><g transform="translate(0.003)"><path d="M350.45,0l15.64.72,9,1.84C407.64,12.2,424.56,35.7,432,67.3c4.19,17.83,6,36.08,7.78,54.28,2.88,30.16,6,60.32,5.34,90.69-.34,15.89-2.53,31.36-8.75,46.25-14.13,33.81-63.82,46.58-92.68,18.27-13.91-13.66-22.17-30.61-29.49-48.15-3.71-8.87-6.78-18-9.9-27.13-.82-2.42-1.81-3.49-4.49-3.49-52.3.07-104.59,0-157.38,0l-5.49,16.41a50.84,50.84,0,0,0-4.13,11c-3.53,9.39-8.21,18.24-12.72,27.17l-4.15,6.92c-7,10-14.83,19.2-25.43,25.67C66.14,300.11,28.77,291,13.58,266.82,3.68,251.08,1.64,233.56.43,215.74c-1.29-19,.59-38,1.9-56.88,1.84-26.57,4.54-53,8.62-79.38,2.83-18.2,8.06-35.43,19.51-50.1C46.94,8.28,69-1.08,95.56.26c20.12,1,37.37,8.73,51.72,22.84a7.48,7.48,0,0,0,5.77,2.18q69.48-.09,139,0a7.52,7.52,0,0,0,5.8-2.1A79.76,79.76,0,0,1,349,.19ZM306,48.54h0l-2.89.07c-2,0-4-.12-6-.12-50.34,0-100.67-.08-151,.12-5,0-8.14-1.39-11.29-5.24-23.55-28.8-77.28-30-94.83,16.2-7.36,19.36-8.26,40-10.76,60.25C27,138,25.8,156.28,24.54,174.56c-1.41,20.45-2.26,41,1.61,61.27,2.77,14.49,9.13,26.41,24.4,31.3,14.59,4.66,27.22,1.79,37.67-9.64A75.561,75.561,0,0,0,97.37,245c10.62-17.88,17.27-37.39,23.69-57,1.43-4.37,2.22-9,4.49-13.2h147.1c14.17,0,28.33.13,42.5-.08,3.68-.06,5.49.65,6.6,4.63,2.75,9.92,5.92,19.76,9.49,29.42C337.6,226,344.6,242.91,356.91,257c9,10.28,19.94,14.23,33.55,11.21,13.45-3,22.13-10.88,26.4-23.8,3.37-10.2,4.6-20.8,5-31.46,1-26.88-2.19-53.56-4.34-80.28-1.68-20.9-3.82-41.8-8.57-62.25-3.77-16.19-11.3-30.54-26-39.33-25.76-15.36-57.3-8.16-75.82,16.66Z" fill="#727272"/><path d="M116.07,83.56l-15.26,16.58c-8.65-7.35-14.75-15.43-22.67-21.57h0c-2.27-4.11-6.59-6.43-9.14-10.28,14.55-15.1,44.91-14.47,60.36,1.46l-8.33,8.91a7.61,7.61,0,0,0-3.18,3.2l-.85.79Z" fill="#727272"/><path d="M73.86,125.8l-7.59,7c-15.95-13.24-16.75-43.48-1.51-60.24l7.49,7.11,4.83,4.78,20.28,19.63L76.23,123.43a4.31,4.31,0,0,0-2.37,2.37Z" fill="#727272"/><path d="M133.56,130.76l-28-27.58L134.63,74C147.81,88.43,147.34,114.75,133.56,130.76Z" fill="#727272"/><path d="M120.16,126.88q4.59,4.85,9.16,9.7c-13.55,13.73-41,15.35-57.23,1.54.4-.5.75-1.05,1.2-1.51,9.2-9.35,18.41-18.69,29-29.43l15.55,17.37a4.23,4.23,0,0,0,2.32,2.33Z" fill="#727272"/><path d="M352.09,104.24a16.31,16.31,0,0,1,16.29-16.57,16.48,16.48,0,0,1,16.55,16.41,16.8,16.8,0,0,1-16.15,16.43,16.5,16.5,0,0,1-16.69-16.27Z" fill="#727272"/><path d="M308.77,87.68A16.39,16.39,0,1,1,292.1,104a16.39,16.39,0,0,1,16.67-16.32Z" fill="#727272"/><path d="M338.63,90.4a16.36,16.36,0,1,1,16.18-16.29A16.57,16.57,0,0,1,338.63,90.4Z" fill="#727272"/><path d="M354.8,134a16.34,16.34,0,1,1-16.29-16.28A16.54,16.54,0,0,1,354.8,134Z" fill="#727272"/><path d="M491.3,12.76h17V134h-17Zm8.76,58.06h38.79a17.91,17.91,0,0,0,9.67-2.59A17.179,17.179,0,0,0,555,60.89,24.84,24.84,0,0,0,557.28,50,25,25,0,0,0,555,39a17.49,17.49,0,0,0-6.47-7.39A17.75,17.75,0,0,0,538.85,29H500.06V12.76h38.21a38.5,38.5,0,0,1,19.1,4.63,32.2,32.2,0,0,1,12.8,13.06A40.44,40.44,0,0,1,574.72,50a40.239,40.239,0,0,1-4.55,19.48,32,32,0,0,1-12.8,13A38.7,38.7,0,0,1,538.27,87H500.06Z" fill="#727272"/><path d="M596,12.76h17V134H596Zm8.5,105.1h69.4V134H604.5Z" fill="#727272"/><path d="M728.61,12.76h14.51L787.83,134H769.48L735.87,36.2,702.25,134H683.9ZM704.5,91.25h63.81v16.18H704.5Z" fill="#727272"/><path d="M835.13,84.75V134h-17V84.75l-37-72h18.93l26.53,54.72,26.52-54.72h18.94Z" fill="#727272"/><path d="M502.23,278.2a30.56,30.56,0,0,1-12.47-10.76,38.749,38.749,0,0,1-6-17h17.35A18.32,18.32,0,0,0,504.4,259a15.12,15.12,0,0,0,6.47,5,24.46,24.46,0,0,0,9.3,1.62q8.42,0,13.09-4.5t4.67-12.68v-3.67q0-9.09-4.42-14.05t-12.51-5h-8.59V209.51H521c4.72,0,8.4-1.42,11-4.25s3.92-6.84,3.92-12V189.5q0-7.17-4.13-11.09t-11.72-3.92a17.78,17.78,0,0,0-7.76,1.63,14.77,14.77,0,0,0-5.79,5,22.719,22.719,0,0,0-3.46,8.47H485.8a44.07,44.07,0,0,1,6.3-17,30.78,30.78,0,0,1,11.72-10.76,34.91,34.91,0,0,1,16.26-3.67q15.69,0,24.27,8.26t8.6,23.27v2A26.21,26.21,0,0,1,548,207.51a27.75,27.75,0,0,1-13.93,9.84,24.69,24.69,0,0,1,15.39,9.76Q555,234.7,555,246.46v2q0,10.59-4.09,18.1A27,27,0,0,1,539,278q-7.8,3.93-18.8,3.92a41.16,41.16,0,0,1-17.97-3.72Z" fill="#727272"/><path d="M612.65,277.62a27.94,27.94,0,0,1-11.55-12.51q-4-8.22-4-19.81v-.09A67.772,67.772,0,0,1,598.72,231a80.842,80.842,0,0,1,4.59-14.59q.5-1.26,1.08-2.46c.39-.81.78-1.6,1.17-2.38l26.36-52.22h18.35l-30.95,60.48.08-3a14.65,14.65,0,0,1,6.09-6.09,19.41,19.41,0,0,1,9.35-2.17A29.73,29.73,0,0,1,651,212.85a26.57,26.57,0,0,1,10.26,12.39q3.5,8.13,3.5,19.56v.08q0,11.69-4,20a27.94,27.94,0,0,1-11.6,12.68q-7.62,4.34-18.3,4.33T612.65,277.62Zm30.73-17.06q4.38-5,4.38-14.26v-.09q0-10.17-4.58-15.72t-13.1-5.55q-7.59,0-11.76,5.59t-4.17,15.77v.08q0,9.26,4.38,14.22t12.39,5Q639,265.56,643.38,260.56Z" fill="#727272"/><path d="M716.6,272.82q-8.8-9.09-8.8-25.36V192.33q0-16.35,8.84-25.4t25.78-9.05q17,0,25.81,9t8.8,25.44v55.13q0,16.35-8.84,25.4t-25.77,9.05Q725.4,281.91,716.6,272.82ZM755.72,261q4.29-4.71,4.29-13.56V192.33q0-8.84-4.25-13.55t-13.34-4.72q-9.1,0-13.35,4.72t-4.25,13.55v55.13q0,8.85,4.29,13.56t13.31,4.71Q751.42,265.73,755.72,261Z" fill="#727272"/><path d="M829.38,172.65a11.3,11.3,0,1,1-11.3,11.3,11.3,11.3,0,0,1,11.3-11.3m0-12a23.3,23.3,0,1,0,23.3,23.3,23.3,23.3,0,0,0-23.3-23.3Z" fill="#727272"/></g></svg>