<svg xmlns="http://www.w3.org/2000/svg" width="100" height="100" viewBox="0 0 100 100"><g transform="translate(-1035 -1204)"><rect width="100" height="100" rx="50" transform="translate(1035 1204)" fill="#fcfaff"/><g transform="translate(974.01 1230)"><g transform="translate(95.99)"><path d="M124.165,20.868a1.044,1.044,0,0,0,1.044-1.044V17.738a1.044,1.044,0,1,0-2.087,0V15.651a5.223,5.223,0,0,0-4.26-5.122L117.9.939A1.046,1.046,0,0,0,116.862,0H102.253a1.044,1.044,0,0,0-1.039.939l-.96,9.59a5.219,5.219,0,0,0-4.264,5.122v16.7a5.225,5.225,0,0,0,4.262,5.122l.96,9.592a1.046,1.046,0,0,0,1.039.939H116.86a1.042,1.042,0,0,0,1.037-.939l.96-9.592a5.224,5.224,0,0,0,4.264-5.122V30.26a1.044,1.044,0,1,0,2.087,0V28.173a1.044,1.044,0,1,0-2.087,0V19.825A1.044,1.044,0,0,0,124.165,20.868ZM103.2,2.085h12.721l.835,8.348h-14.39Zm12.719,43.828H103.194l-.835-8.35h14.39Zm5.119-13.566a3.134,3.134,0,0,1-3.131,3.131h-16.7a3.136,3.136,0,0,1-3.131-3.131v-16.7a3.134,3.134,0,0,1,3.131-3.131h16.7a3.133,3.133,0,0,1,3.131,3.131v16.7Z" transform="translate(-95.99)"/></g></g></g></svg>