<svg xmlns="http://www.w3.org/2000/svg" width="100" height="100" viewBox="0 0 100 100"><g transform="translate(-555 -1204)"><rect width="100" height="100" rx="50" transform="translate(555 1204)" fill="#fcfaff"/><g transform="translate(584.5 1228.5)"><path d="M5.5,7.214A5.714,5.714,0,0,1,11.214,1.5H29.5a5.714,5.714,0,0,1,5.714,5.714V43.786A5.714,5.714,0,0,1,29.5,49.5H11.214A5.714,5.714,0,0,1,5.5,43.786Zm5.714-3.429A3.429,3.429,0,0,0,7.786,7.214V43.786a3.429,3.429,0,0,0,3.429,3.429H29.5a3.429,3.429,0,0,0,3.429-3.429V7.214A3.429,3.429,0,0,0,29.5,3.786Z" transform="translate(0 0)" fill-rule="evenodd"/><path d="M8.5,2.643A1.143,1.143,0,0,1,9.643,1.5H23.357A1.143,1.143,0,0,1,24.5,2.643V4.929a3.429,3.429,0,0,1-3.429,3.429H11.929A3.429,3.429,0,0,1,8.5,4.929Zm2.286,1.143V4.929a1.143,1.143,0,0,0,1.143,1.143h9.143a1.143,1.143,0,0,0,1.143-1.143V3.786Z" transform="translate(3.857 0)" fill-rule="evenodd"/></g></g></svg>