<svg xmlns="http://www.w3.org/2000/svg" width="100" height="100" viewBox="0 0 100 100"><g transform="translate(-796 -1204)"><rect width="100" height="100" rx="50" transform="translate(796 1204)" fill="#fcfaff"/><g transform="translate(822 1230)"><path d="M10.656,36A10.656,10.656,0,0,1,0,25.342V23.008A11.02,11.02,0,0,1,11.006,12H37A11.013,11.013,0,0,1,48,23v2.348A10.663,10.663,0,0,1,37.35,36a12.18,12.18,0,0,1-9.474-4.384A4.3,4.3,0,0,0,24.542,30H23.46a4.248,4.248,0,0,0-3.27,1.53A12.379,12.379,0,0,1,10.7,36h-.042Zm.35-22A9.016,9.016,0,0,0,2,23.006V25.34A8.658,8.658,0,0,0,10.656,34h.034a10.394,10.394,0,0,0,7.966-3.75A6.236,6.236,0,0,1,23.46,28h1.082a6.228,6.228,0,0,1,4.8,2.25A10.176,10.176,0,0,0,37.22,34,8.688,8.688,0,0,0,46,25.348V23a9.011,9.011,0,0,0-9-9Z" transform="translate(0 12)"/><path d="M11,19.5H3a1,1,0,0,1,0-2h8a1,1,0,0,1,0,2Z" transform="translate(2 17.5)"/><path d="M5,25.5a1,1,0,0,1-1-1v-8a1,1,0,0,1,2,0v8A1,1,0,0,1,5,25.5Z" transform="translate(4 15.5)"/><circle cx="1.5" cy="1.5" r="1.5" transform="translate(40 34.5)"/><circle cx="1.5" cy="1.5" r="1.5" transform="translate(36.5 31)"/><circle cx="1.5" cy="1.5" r="1.5" transform="translate(36.5 38)"/><circle cx="1.5" cy="1.5" r="1.5" transform="translate(33 34.5)"/><path d="M14,19H12a1,1,0,0,1,0-2h2a1,1,0,0,1,0,2Z" transform="translate(11 17)"/><path d="M20,17a1,1,0,0,1-1-1V12a1,1,0,0,0-1-1H12a1,1,0,0,0-1,1v4a1,1,0,0,1-2,0V12a3,3,0,0,1,3-3h6a3,3,0,0,1,3,3v4A1,1,0,0,1,20,17Z" transform="translate(9 9)"/><path d="M12.5,20a1,1,0,0,1-1-1V7.5a7.5,7.5,0,0,1,15,0A4.505,4.505,0,0,0,31,12h4.5a1,1,0,0,1,0,2H31a6.508,6.508,0,0,1-6.5-6.5,5.5,5.5,0,0,0-11,0V19A1,1,0,0,1,12.5,20Z" transform="translate(11.5)"/></g></g></svg>