<svg xmlns="http://www.w3.org/2000/svg" width="100" height="100" viewBox="0 0 100 100"><g transform="translate(-324 -1204)"><rect width="100" height="100" rx="50" transform="translate(324 1204)" fill="#fcfaff"/><g transform="translate(350 1162.333)"><g transform="translate(0 74.667)"><path d="M47,100.667H44v-23a3,3,0,0,0-3-3H7a3,3,0,0,0-3,3v23H1a1,1,0,0,0-1,1v2a5.007,5.007,0,0,0,5,5H43a5.007,5.007,0,0,0,5-5v-2A1,1,0,0,0,47,100.667Zm-41-23a1,1,0,0,1,1-1H41a1,1,0,0,1,1,1v23H32a.991.991,0,0,0-.7.292l-1.708,1.708H18.416l-1.708-1.708a1.007,1.007,0,0,0-.708-.292H6Zm40,26a3,3,0,0,1-3,3H5a3,3,0,0,1-3-3v-1H15.586l1.706,1.708a1.007,1.007,0,0,0,.708.292H30a1,1,0,0,0,.706-.292l1.708-1.708H46v1Z" transform="translate(0 -74.667)"/></g></g></g></svg>