<svg xmlns="http://www.w3.org/2000/svg" width="100" height="100" viewBox="0 0 100 100"><g transform="translate(-1266 -1204)"><rect width="100" height="100" rx="50" transform="translate(1266 1204)" fill="#fcfaff"/><path d="M26.5,2.5A18.947,18.947,0,0,0,7.553,21.447v3.916A6.318,6.318,0,0,0,2.5,31.553V41.658a6.316,6.316,0,1,0,12.632,0V31.553a6.318,6.318,0,0,0-5.053-6.189V21.447a16.421,16.421,0,1,1,32.842,0v3.916a6.318,6.318,0,0,0-5.053,6.189V41.658a6.316,6.316,0,1,0,12.632,0V31.553a6.318,6.318,0,0,0-5.053-6.189V21.447A18.947,18.947,0,0,0,26.5,2.5ZM44.184,27.763a3.79,3.79,0,0,0-3.789,3.789V41.658a3.789,3.789,0,1,0,7.579,0V31.553A3.79,3.79,0,0,0,44.184,27.763Zm-35.368,0a3.79,3.79,0,0,0-3.789,3.789V41.658a3.789,3.789,0,1,0,7.579,0V31.553A3.79,3.79,0,0,0,8.816,27.763Z" transform="translate(1289.5 1228.5)" fill-rule="evenodd"/></g></svg>