<svg xmlns="http://www.w3.org/2000/svg" width="100" height="100" viewBox="0 0 100 100"><g transform="translate(-1496 -1204)"><rect width="100" height="100" rx="50" transform="translate(1496 1204)" fill="#fcfaff"/><g transform="translate(1521 1219.333)"><g transform="translate(0 10.667)"><path d="M44.727,10.667H5.455A5.462,5.462,0,0,0,0,16.122V44.485A5.462,5.462,0,0,0,5.455,49.94H24v6.545H9.818a1.091,1.091,0,1,0,0,2.182H40.364a1.091,1.091,0,1,0,0-2.182H26.182V49.94H44.727a5.462,5.462,0,0,0,5.455-5.455V16.122A5.462,5.462,0,0,0,44.727,10.667ZM48,44.485a3.277,3.277,0,0,1-3.273,3.273H5.455a3.277,3.277,0,0,1-3.273-3.273V41.212H48Zm0-5.455H2.182V16.122a3.277,3.277,0,0,1,3.273-3.273H44.727A3.277,3.277,0,0,1,48,16.122Z" transform="translate(0 -10.667)"/></g></g></g></svg>